<svg width="1440" height="900" viewBox="0 0 1440 900" fill="none" xmlns="http://www.w3.org/2000/svg">
<g clip-path="url(#clip0_34_30)">
<rect width="1440" height="900" fill="#F8F9FA"/>
<path d="M2283.43 -603.221C2344.78 -509.054 2224.33 -119.887 2195.38 113.946C2166.28 347.78 2228.83 426.28 2194.93 483.28C2161.03 540.113 2030.83 575.28 1969.03 634.28C1907.08 693.113 1913.53 775.78 1886.08 813.28C1858.78 850.78 1797.43 842.78 1731.28 852.446C1664.98 862.113 1593.73 889.113 1538.98 869.28C1484.23 849.446 1445.83 782.613 1244.53 714.113C1043.08 645.446 678.731 575.28 597.881 453.113C517.181 331.113 720.131 157.113 830.531 -86.3871C940.931 -330.054 958.931 -643.221 1094.38 -689.887C1229.98 -736.554 1483.03 -516.72 1731.13 -506.887C1979.23 -497.22 2222.23 -697.554 2283.43 -603.221Z" fill="#7245DF"/>
</g>
<defs>
<clipPath id="clip0_34_30">
<rect width="1440" height="900" fill="white"/>
</clipPath>
</defs>
</svg>
