<svg id="visual" viewBox="0 0 960 540" width="960" height="540" xmlns="http://www.w3.org/2000/svg" xmlns:xlink="http://www.w3.org/1999/xlink" version="1.1"><rect x="0" y="0" width="960" height="540" fill="#F8F9FA"></rect><g transform="translate(1157.4872354430408 248.9677821506131)"><path d="M364.8 -664.9C405.7 -608.4 325.4 -374.9 306.1 -234.6C286.7 -94.3 328.4 -47.2 305.8 -13C283.2 21.1 196.4 42.2 155.2 77.6C113.9 112.9 118.2 162.5 99.9 185C81.7 207.5 40.8 202.7 -3.3 208.5C-47.5 214.3 -95 230.5 -131.5 218.6C-168 206.7 -193.6 166.6 -327.8 125.5C-462.1 84.3 -705 42.2 -758.9 -31.1C-812.7 -104.3 -677.4 -208.7 -603.8 -354.8C-530.2 -501 -518.2 -688.9 -427.9 -716.9C-337.5 -744.9 -168.8 -613 -3.4 -607.1C162 -601.3 324 -721.5 364.8 -664.9" fill="#7245df"></path></g></svg>