<svg width="1440" height="900" viewBox="0 0 1440 900" fill="none" xmlns="http://www.w3.org/2000/svg">
<g clip-path="url(#clip0_34_30)">
<rect width="1440" height="900" fill="#F8F9FA"/>
<path d="M-843.818 -579.84C-905.168 -485.673 -784.719 -96.5065 -755.769 137.327C-726.669 371.16 -789.218 449.66 -755.318 506.66C-721.418 563.494 -591.219 598.66 -529.419 657.66C-467.469 716.493 -473.919 799.16 -446.469 836.66C-419.169 874.16 -357.819 866.16 -291.669 875.827C-225.369 885.494 -154.119 912.494 -99.3685 892.66C-44.6185 872.827 -6.21861 805.994 195.081 737.494C396.531 668.827 760.881 598.66 841.731 476.494C922.431 354.494 719.481 180.494 609.081 -63.0065C498.681 -306.673 480.681 -619.84 345.231 -666.507C209.631 -713.173 -43.4186 -493.34 -291.519 -483.506C-539.619 -473.84 -782.618 -674.173 -843.818 -579.84Z" fill="#7245DF"/>
</g>
<defs>
<clipPath id="clip0_34_30">
<rect width="1440" height="900" fill="white"/>
</clipPath>
</defs>
</svg>
