<svg width="861" height="877" viewBox="0 0 861 877" fill="none" xmlns="http://www.w3.org/2000/svg">
<path d="M1704.43 -603.221C1765.78 -509.054 1645.33 -119.887 1616.38 113.946C1587.28 347.78 1649.83 426.28 1615.93 483.28C1582.03 540.113 1451.83 575.28 1390.03 634.28C1328.08 693.113 1334.53 775.78 1307.08 813.28C1279.78 850.78 1218.43 842.78 1152.28 852.446C1085.98 862.113 1014.73 889.113 959.981 869.28C905.231 849.446 866.831 782.613 665.531 714.113C464.081 645.446 99.7307 575.28 18.8807 453.113C-61.8193 331.113 141.131 157.113 251.531 -86.3871C361.931 -330.054 379.931 -643.221 515.381 -689.887C650.981 -736.554 904.031 -516.72 1152.13 -506.887C1400.23 -497.22 1643.23 -697.554 1704.43 -603.221Z" fill="#7245DF"/>
</svg>
